<svg xmlns="http://www.w3.org/2000/svg" width="18" height="18" viewBox="0 0 18 18" fill="none">
<path d="M15 9C15 9.19891 14.921 9.38968 14.7803 9.53033C14.6397 9.67098 14.4489 9.75 14.25 9.75H8.5575L10.2825 11.4675C10.3528 11.5372 10.4086 11.6202 10.4467 11.7116C10.4847 11.803 10.5043 11.901 10.5043 12C10.5043 12.099 10.4847 12.197 10.4467 12.2884C10.4086 12.3798 10.3528 12.4628 10.2825 12.5325C10.2128 12.6028 10.1298 12.6586 10.0384 12.6967C9.94704 12.7347 9.84901 12.7543 9.75 12.7543C9.65099 12.7543 9.55296 12.7347 9.46157 12.6967C9.37017 12.6586 9.28722 12.6028 9.2175 12.5325L6.2175 9.5325C6.14922 9.46117 6.0957 9.37706 6.06 9.285C5.98499 9.1024 5.98499 8.8976 6.06 8.715C6.0957 8.62294 6.14922 8.53883 6.2175 8.4675L9.2175 5.4675C9.28743 5.39757 9.37045 5.3421 9.46181 5.30426C9.55318 5.26641 9.65111 5.24693 9.75 5.24693C9.84889 5.24693 9.94682 5.26641 10.0382 5.30426C10.1296 5.3421 10.2126 5.39757 10.2825 5.4675C10.3524 5.53743 10.4079 5.62045 10.4457 5.71181C10.4836 5.80318 10.5031 5.90111 10.5031 6C10.5031 6.09889 10.4836 6.19682 10.4457 6.28819C10.4079 6.37955 10.3524 6.46257 10.2825 6.5325L8.5575 8.25H14.25C14.4489 8.25 14.6397 8.32902 14.7803 8.46967C14.921 8.61032 15 8.80109 15 9V9ZM5.25 1.5H12.75C13.3467 1.5 13.919 1.73705 14.341 2.15901C14.7629 2.58097 15 3.15326 15 3.75V6C15 6.19891 14.921 6.38968 14.7803 6.53033C14.6397 6.67098 14.4489 6.75 14.25 6.75C14.0511 6.75 13.8603 6.67098 13.7197 6.53033C13.579 6.38968 13.5 6.19891 13.5 6V3.75C13.5 3.55109 13.421 3.36032 13.2803 3.21967C13.1397 3.07902 12.9489 3 12.75 3H5.25C5.05109 3 4.86032 3.07902 4.71967 3.21967C4.57902 3.36032 4.5 3.55109 4.5 3.75V14.25C4.5 14.4489 4.57902 14.6397 4.71967 14.7803C4.86032 14.921 5.05109 15 5.25 15H12.75C12.9489 15 13.1397 14.921 13.2803 14.7803C13.421 14.6397 13.5 14.4489 13.5 14.25V12C13.5 11.8011 13.579 11.6103 13.7197 11.4697C13.8603 11.329 14.0511 11.25 14.25 11.25C14.4489 11.25 14.6397 11.329 14.7803 11.4697C14.921 11.6103 15 11.8011 15 12V14.25C15 14.8467 14.7629 15.419 14.341 15.841C13.919 16.2629 13.3467 16.5 12.75 16.5H5.25C4.65326 16.5 4.08097 16.2629 3.65901 15.841C3.23705 15.419 3 14.8467 3 14.25V3.75C3 3.15326 3.23705 2.58097 3.65901 2.15901C4.08097 1.73705 4.65326 1.5 5.25 1.5Z" fill="black"/>
</svg>